<?xml version="1.0" encoding="UTF-8"?>
<svg width="140px" height="140px" viewBox="0 0 140 140" version="1.1" xmlns="http://www.w3.org/2000/svg" xmlns:xlink="http://www.w3.org/1999/xlink">
    <!-- Generator: Sketch 53.2 (72643) - https://sketchapp.com -->
    <title>Group 7</title>
    <desc>Created with Sketch.</desc>
    <defs>
        <path d="M0.312,69.857 C0.312,108.423 31.577,139.688 70.143,139.688 L70.143,139.688 C108.709,139.688 139.974,108.423 139.974,69.857 L139.974,69.857 C139.974,31.291 108.709,0.026 70.143,0.026 L70.143,0.026 C31.577,0.026 0.312,31.291 0.312,69.857 L0.312,69.857 Z" id="path-1"></path>
        <path d="M6.697,0.918 C3.487,0.918 0.878,3.527 0.878,6.734 L0.878,6.734 L0.878,44.974 C0.878,48.185 3.487,50.796 6.697,50.796 L6.697,50.796 L51.589,50.796 C54.797,50.796 57.408,48.185 57.408,44.974 L57.408,44.974 L57.408,11.726 C57.408,8.513 54.797,5.904 51.589,5.904 L51.589,5.904 L27.886,5.904 C26.776,5.904 25.73,5.473 24.946,4.689 L24.946,4.689 L22.879,2.619 C21.78,1.521 20.32,0.918 18.765,0.918 L18.765,0.918 L6.697,0.918 Z M2.541,6.734 C2.541,4.444 4.407,2.578 6.697,2.578 L6.697,2.578 L18.765,2.578 C19.877,2.578 20.921,3.01 21.705,3.797 L21.705,3.797 L23.769,5.863 C24.868,6.963 26.331,7.567 27.886,7.567 L27.886,7.567 L51.589,7.567 C53.882,7.567 55.746,9.433 55.746,11.726 L55.746,11.726 L55.746,19.205 L2.541,19.205 L2.541,6.734 Z M2.541,44.974 L2.541,20.868 L55.746,20.868 L55.746,44.974 C55.746,47.267 53.882,49.133 51.589,49.133 L51.589,49.133 L6.697,49.133 C4.407,49.133 2.541,47.267 2.541,44.974 L2.541,44.974 Z" id="path-3"></path>
    </defs>
    <g id="Webex-Teams" stroke="none" stroke-width="1" fill="none" fill-rule="evenodd">
        <g transform="translate(-1266.000000, -1397.000000)" id="Group-7">
            <g transform="translate(1266.000000, 1397.000000)">
                <g id="Group-3" transform="translate(0.000000, 0.289000)">
                    <mask id="mask-2" fill="white">
                        <use xlink:href="#path-1"></use>
                    </mask>
                    <g id="Clip-2"></g>
                    <polygon id="Fill-1" fill="#FFB300" mask="url(#mask-2)" points="-8 148 148.289 148 148.289 -8.289 -8 -8.289"></polygon>
                </g>
                <g id="Group-6" transform="translate(41.000000, 44.289000)">
                    <mask id="mask-4" fill="white">
                        <use xlink:href="#path-3"></use>
                    </mask>
                    <g id="Clip-5"></g>
                    <polygon id="Fill-4" fill="#FFFFFF" mask="url(#mask-4)" points="-7.434 59.108 65.723 59.108 65.723 -7.397 -7.434 -7.397"></polygon>
                </g>
            </g>
        </g>
    </g>
</svg>