<?xml version="1.0" encoding="UTF-8"?>
<svg width="140px" height="140px" viewBox="0 0 140 140" version="1.1" xmlns="http://www.w3.org/2000/svg" xmlns:xlink="http://www.w3.org/1999/xlink">
    <!-- Generator: Sketch 53.2 (72643) - https://sketchapp.com -->
    <title>Group 7</title>
    <desc>Created with Sketch.</desc>
    <defs>
        <path d="M0.312,69.857 C0.312,108.423 31.577,139.688 70.143,139.688 L70.143,139.688 C108.709,139.688 139.974,108.423 139.974,69.857 L139.974,69.857 C139.974,31.291 108.709,0.026 70.143,0.026 L70.143,0.026 C31.577,0.026 0.312,31.291 0.312,69.857 L0.312,69.857 Z" id="path-1"></path>
        <path d="M0.878,28.857 C0.878,33.673 2.13,38.439 4.5,42.659 L4.5,42.659 L0.907,56.075 C0.829,56.363 0.911,56.669 1.123,56.878 L1.123,56.878 C1.279,57.037 1.493,57.122 1.709,57.122 L1.709,57.122 C1.781,57.122 1.855,57.111 1.925,57.093 L1.925,57.093 L15.341,53.5 C19.561,55.87 24.327,57.122 29.143,57.122 L29.143,57.122 C44.729,57.122 57.408,44.443 57.408,28.857 L57.408,28.857 C57.408,13.271 44.729,0.592 29.143,0.592 L29.143,0.592 C13.557,0.592 0.878,13.271 0.878,28.857 L0.878,28.857 Z M6.196,42.759 C6.253,42.546 6.221,42.322 6.114,42.13 L6.114,42.13 C3.778,38.084 2.541,33.493 2.541,28.857 L2.541,28.857 C2.541,14.188 14.475,2.254 29.143,2.254 L29.143,2.254 C43.812,2.254 55.746,14.188 55.746,28.857 L55.746,28.857 C55.746,43.525 43.812,55.459 29.143,55.459 L29.143,55.459 C24.507,55.459 19.916,54.222 15.87,51.886 L15.87,51.886 C15.744,51.815 15.6,51.776 15.454,51.776 L15.454,51.776 C15.382,51.776 15.31,51.786 15.241,51.804 L15.241,51.804 L2.886,55.114 L6.196,42.759 Z" id="path-3"></path>
    </defs>
    <g id="Webex-Teams" stroke="none" stroke-width="1" fill="none" fill-rule="evenodd">
        <g transform="translate(-1086.000000, -1397.000000)" id="Group-7">
            <g transform="translate(1086.000000, 1397.000000)">
                <g id="Group-3" transform="translate(0.000000, 0.289000)">
                    <mask id="mask-2" fill="white">
                        <use xlink:href="#path-1"></use>
                    </mask>
                    <g id="Clip-2"></g>
                    <polygon id="Fill-1" fill="#00C0E3" mask="url(#mask-2)" points="-8 148 148.289 148 148.289 -8.289 -8 -8.289"></polygon>
                </g>
                <g id="Group-6" transform="translate(41.000000, 41.289000)">
                    <mask id="mask-4" fill="white">
                        <use xlink:href="#path-3"></use>
                    </mask>
                    <g id="Clip-5"></g>
                    <polygon id="Fill-4" fill="#FFFFFF" mask="url(#mask-4)" points="-7.434 65.434 65.723 65.434 65.723 -7.723 -7.434 -7.723"></polygon>
                </g>
            </g>
        </g>
    </g>
</svg>